<?xml version="1.0" standalone="no"?>
<!DOCTYPE svg PUBLIC "-//W3C//DTD SVG 20010904//EN"
 "http://www.w3.org/TR/2001/REC-SVG-20010904/DTD/svg10.dtd">
<svg version="1.0" xmlns="http://www.w3.org/2000/svg"
 width="1152.000000pt" height="1152.000000pt" viewBox="0 0 1152.000000 1152.000000"
 preserveAspectRatio="xMidYMid meet">
<metadata>
Created by potrace 1.14, written by Peter Selinger 2001-2017
</metadata>
<g transform="translate(0.000000,1152.000000) scale(0.100000,-0.100000)"
fill="#000000" stroke="none">
<path d="M5669 11486 c-3 -3 -16 -7 -31 -10 -14 -2 -37 -10 -50 -17 -12 -7
-23 -10 -24 -8 0 3 -236 -128 -319 -178 -11 -7 -27 -15 -35 -19 -8 -4 -26 -15
-40 -24 -14 -9 -50 -30 -80 -47 -30 -16 -90 -51 -133 -76 -43 -26 -83 -47 -88
-47 -5 0 -9 -4 -9 -10 0 -5 -6 -10 -14 -10 -7 0 -24 -8 -37 -19 -13 -10 -28
-19 -34 -20 -5 0 -17 -7 -27 -15 -9 -8 -19 -12 -22 -9 -3 4 -6 1 -6 -5 0 -7
-4 -12 -10 -12 -5 0 -31 -13 -58 -29 -26 -15 -68 -39 -93 -53 -24 -14 -90 -53
-146 -86 -56 -33 -111 -63 -122 -67 -12 -3 -21 -10 -21 -15 0 -5 -9 -12 -20
-15 -11 -4 -49 -24 -85 -46 -36 -21 -68 -39 -72 -39 -3 0 -14 -6 -22 -14 -9
-7 -41 -26 -71 -42 -30 -15 -62 -33 -70 -40 -8 -6 -35 -23 -60 -36 -25 -14
-65 -37 -90 -52 -25 -15 -57 -32 -72 -39 -16 -6 -28 -15 -28 -19 0 -4 -4 -8
-10 -8 -5 0 -39 -18 -75 -40 -36 -22 -68 -40 -71 -40 -3 0 -17 -9 -31 -20 -14
-11 -29 -18 -33 -15 -4 2 -15 -4 -25 -15 -10 -11 -22 -20 -26 -20 -4 0 -43
-21 -86 -46 -43 -26 -94 -56 -113 -67 -19 -10 -64 -36 -100 -57 -132 -77 -157
-91 -255 -147 -55 -31 -103 -61 -107 -67 -4 -6 -8 -7 -8 -3 0 5 -13 -1 -29
-12 -16 -12 -34 -21 -40 -21 -6 0 -11 -3 -11 -8 0 -4 -17 -15 -37 -25 -21 -10
-51 -26 -68 -37 -35 -22 -100 -59 -132 -74 -13 -6 -23 -14 -23 -18 0 -5 -5 -8
-10 -8 -8 0 -81 -40 -180 -100 -8 -5 -39 -22 -67 -37 -29 -15 -53 -31 -53 -35
0 -4 -6 -8 -12 -8 -7 -1 -38 -16 -68 -35 -30 -19 -72 -42 -92 -52 -21 -10 -38
-21 -38 -25 0 -5 -6 -8 -14 -8 -7 0 -19 -7 -26 -15 -7 -8 -16 -13 -20 -10 -5
3 -10 1 -12 -4 -1 -5 -10 -11 -18 -13 -8 -2 -22 -10 -32 -18 -9 -8 -39 -26
-65 -40 -26 -14 -119 -66 -207 -117 -87 -51 -159 -93 -161 -93 -1 0 -44 -25
-94 -55 -51 -30 -96 -55 -101 -55 -6 0 -10 -3 -10 -7 0 -5 -24 -19 -52 -33
-69 -33 -176 -140 -211 -211 -61 -122 -57 75 -56 -2804 0 -2819 -2 -2681 46
-2784 17 -36 51 -86 88 -129 26 -31 133 -108 163 -116 12 -4 22 -12 22 -17 0
-5 5 -9 11 -9 6 0 44 -20 84 -44 40 -25 76 -42 79 -39 3 4 6 2 6 -4 0 -5 21
-21 47 -34 27 -13 54 -29 61 -36 6 -6 22 -15 35 -19 12 -3 29 -12 37 -19 8 -7
35 -24 60 -37 25 -14 61 -35 80 -47 19 -11 41 -24 48 -27 8 -4 80 -45 160 -92
81 -46 161 -93 179 -103 17 -10 50 -29 72 -43 22 -15 43 -26 45 -26 2 0 39
-20 80 -45 42 -25 81 -45 86 -45 6 0 10 -4 10 -10 0 -5 4 -10 10 -10 5 0 40
-18 76 -41 37 -22 78 -45 91 -50 12 -4 23 -14 23 -20 0 -7 3 -10 6 -7 3 4 39
-14 80 -38 41 -24 79 -44 84 -44 6 0 10 -4 10 -10 0 -5 4 -10 9 -10 4 0 45
-21 90 -47 45 -27 94 -55 108 -63 15 -8 55 -32 90 -52 35 -21 68 -38 73 -38 6
0 10 -4 10 -10 0 -5 4 -10 10 -10 8 0 135 -70 180 -100 8 -5 40 -23 70 -40 56
-31 67 -37 178 -103 35 -20 67 -37 73 -37 5 0 9 -4 9 -10 0 -5 6 -10 14 -10 8
0 22 -8 32 -18 10 -9 18 -15 18 -13 1 3 12 -2 26 -11 39 -23 205 -119 270
-155 14 -8 43 -25 65 -39 22 -14 54 -31 70 -39 17 -8 48 -26 70 -39 22 -14 72
-43 110 -65 39 -22 91 -53 117 -68 79 -47 292 -168 303 -172 5 -2 12 -7 15
-10 4 -5 210 -125 344 -200 124 -70 147 -84 152 -92 3 -5 10 -7 15 -4 5 4 9 2
9 -3 0 -5 22 -19 50 -32 28 -13 50 -27 50 -31 0 -3 8 -9 18 -12 9 -3 44 -21
77 -40 33 -19 80 -46 105 -60 76 -44 139 -60 230 -61 47 0 99 3 115 6 45 9
165 59 165 69 0 5 4 9 8 9 7 0 81 39 140 75 10 6 49 28 87 49 39 22 72 42 75
45 3 3 34 21 70 40 36 19 67 37 70 40 3 3 19 13 35 22 84 44 320 184 323 191
2 4 12 8 21 8 10 0 28 9 41 20 13 11 29 20 37 20 7 0 16 7 19 15 4 8 13 15 21
15 8 0 27 8 41 19 15 10 47 29 72 43 25 14 61 35 80 46 19 11 58 33 85 47 28
15 57 33 65 40 8 8 22 15 30 17 8 2 17 6 20 9 3 3 48 29 100 59 52 30 97 57
98 62 2 4 12 8 22 8 10 0 21 4 24 8 7 11 163 102 175 102 5 0 11 4 13 8 3 8
36 28 148 88 19 11 41 26 48 34 11 12 12 12 6 1 -4 -8 8 -3 28 12 19 15 40 27
46 27 7 0 12 5 12 10 0 6 5 10 10 10 6 0 84 43 174 95 90 52 168 95 174 95 6
0 12 4 14 9 2 4 46 33 98 62 52 30 103 58 112 64 9 5 29 17 45 26 40 22 90 51
151 88 29 17 55 31 57 31 2 0 24 13 47 29 24 16 46 27 50 25 5 -3 8 -1 8 4 0
5 8 12 18 15 9 4 35 17 57 30 151 91 477 277 485 277 6 0 10 4 10 8 0 5 16 14
35 22 19 8 35 17 35 20 0 3 16 12 35 20 19 8 35 16 35 19 0 3 21 17 48 30 26
14 58 32 72 42 14 9 45 27 70 41 135 75 194 111 202 123 4 5 8 6 8 2 0 -5 12
0 28 11 15 11 37 23 50 26 12 4 22 12 22 17 0 5 4 9 9 9 12 0 249 138 275 161
52 45 64 56 88 89 39 52 65 102 84 162 16 50 17 225 19 2693 1 1996 -2 2654
-11 2697 -12 58 -54 155 -83 191 -50 62 -137 137 -158 137 -7 0 -13 4 -13 8 0
5 -16 14 -35 22 -19 8 -35 17 -35 21 0 4 -8 9 -17 13 -10 3 -31 13 -48 23 -16
10 -115 67 -220 128 -104 60 -193 114 -197 120 -4 5 -8 6 -8 1 0 -5 -8 -2 -17
6 -10 8 -33 21 -50 29 -18 8 -33 17 -33 20 0 4 -8 9 -17 13 -10 3 -25 10 -33
16 -39 26 -172 100 -180 100 -6 0 -10 5 -10 10 0 6 -6 10 -14 10 -8 0 -21 6
-28 13 -8 6 -29 20 -48 31 -19 10 -51 28 -70 39 -19 11 -55 31 -80 45 -25 13
-52 30 -60 37 -8 6 -22 14 -30 17 -8 3 -104 58 -214 122 -109 64 -202 116
-207 116 -5 0 -9 4 -9 8 0 4 -16 14 -35 21 -19 7 -35 17 -35 22 0 5 -5 9 -10
9 -6 0 -95 49 -198 109 -103 60 -205 119 -227 131 -22 13 -53 31 -70 41 -16
11 -43 26 -60 34 -16 9 -52 29 -80 46 -27 16 -57 33 -65 36 -8 4 -17 9 -20 13
-3 4 -48 30 -100 60 -52 29 -111 62 -130 73 -19 11 -47 28 -61 38 -14 10 -28
16 -31 13 -3 -2 -11 2 -18 11 -7 8 -19 15 -26 15 -8 0 -14 5 -14 10 0 6 -5 10
-10 10 -9 0 -59 28 -180 100 -8 5 -58 35 -110 66 -52 31 -101 57 -107 57 -7 0
-13 3 -13 7 0 3 -24 18 -54 33 -30 15 -59 34 -66 42 -7 8 -18 15 -26 15 -7 0
-33 13 -57 30 -24 16 -55 34 -68 40 -13 6 -37 19 -54 30 -16 10 -46 27 -65 37
-19 9 -37 20 -40 23 -5 5 -191 113 -290 168 -25 14 -57 33 -72 43 -14 11 -28
19 -31 19 -3 0 -40 20 -81 45 -42 25 -81 45 -86 45 -6 0 -10 5 -10 10 0 6 -5
10 -11 10 -6 0 -23 9 -39 20 -15 11 -30 17 -34 13 -3 -3 -6 -2 -6 4 0 5 -18
18 -40 28 -22 10 -40 23 -40 28 0 6 -3 7 -7 4 -3 -4 -13 -1 -22 6 -31 26 -127
49 -217 53 -50 2 -93 2 -95 0z m220 -1237 c48 -11 140 -51 184 -81 15 -11 27
-16 27 -11 0 4 4 3 8 -3 4 -6 30 -24 57 -38 28 -15 66 -37 85 -48 19 -12 51
-31 72 -42 20 -12 73 -42 118 -68 46 -27 87 -48 91 -48 5 0 9 -4 9 -8 0 -5 16
-14 35 -22 19 -8 35 -17 35 -22 0 -4 7 -8 15 -8 8 0 15 -5 15 -12 0 -6 3 -9 6
-5 4 3 23 -5 43 -18 19 -14 41 -25 48 -25 7 0 13 -4 13 -8 0 -4 19 -18 43 -30
23 -12 49 -26 57 -31 13 -9 142 -84 225 -131 17 -9 50 -29 75 -44 25 -15 53
-29 63 -33 9 -3 17 -10 17 -15 0 -5 4 -7 9 -3 5 3 12 1 15 -4 6 -9 90 -59 231
-135 11 -6 22 -13 25 -16 5 -5 41 -26 100 -57 19 -10 37 -21 40 -24 3 -3 25
-16 50 -29 25 -14 53 -31 63 -39 9 -8 17 -10 17 -5 0 5 4 4 8 -2 4 -6 25 -21
47 -33 22 -12 61 -34 86 -49 26 -15 78 -45 115 -67 38 -22 83 -48 99 -58 17
-9 38 -20 48 -23 9 -4 17 -10 17 -15 0 -5 6 -9 13 -9 7 0 29 -11 50 -25 20
-14 37 -23 37 -20 0 4 8 -1 17 -10 9 -10 29 -22 45 -27 15 -6 28 -14 28 -19 0
-5 5 -9 11 -9 6 0 64 -31 128 -69 64 -37 137 -79 162 -93 79 -44 94 -53 99
-59 3 -3 21 -13 40 -22 37 -19 72 -39 80 -47 3 -3 30 -18 60 -34 30 -16 57
-32 60 -35 3 -3 23 -15 45 -27 22 -12 80 -44 129 -72 49 -29 93 -52 97 -52 5
0 9 -4 9 -10 0 -5 4 -10 10 -10 26 0 172 -98 223 -151 104 -107 130 -189 132
-429 2 -96 4 -179 5 -185 1 -5 1 -14 0 -20 -7 -32 -3 -191 5 -197 7 -5 7 -8 0
-8 -8 0 -13 -389 -5 -397 5 -6 6 -29 1 -38 -10 -18 -6 -190 4 -197 7 -5 7 -8
0 -8 -9 0 -13 -381 -5 -415 1 -5 1 -14 0 -20 -7 -32 -3 -191 5 -197 7 -5 7 -8
0 -8 -8 0 -13 -389 -5 -397 5 -6 6 -29 1 -38 -10 -18 -6 -190 4 -197 7 -5 7
-8 0 -8 -9 0 -13 -381 -5 -415 1 -5 1 -14 0 -20 -7 -32 -3 -191 5 -197 7 -5 7
-8 0 -8 -8 0 -13 -389 -5 -397 5 -6 6 -29 1 -38 -10 -19 -6 -195 4 -195 6 0 6
-3 0 -8 -6 -4 -11 -65 -11 -152 0 -123 -6 -197 -14 -207 -2 -2 -3 -6 -4 -10
-7 -30 -32 -83 -39 -83 -4 0 -6 -4 -3 -9 3 -5 -1 -14 -9 -21 -8 -7 -15 -16
-15 -21 0 -4 -19 -29 -42 -54 -46 -51 -112 -94 -313 -205 -33 -18 -62 -36 -65
-40 -3 -3 -20 -12 -37 -19 -18 -8 -33 -17 -33 -22 0 -5 -5 -9 -10 -9 -6 0 -80
-40 -165 -90 -85 -49 -159 -90 -165 -90 -5 0 -10 -4 -10 -9 0 -8 -40 -27 -47
-22 -2 0 -12 -8 -23 -19 -11 -11 -27 -20 -35 -20 -8 0 -15 -4 -15 -9 0 -5 -16
-15 -35 -22 -19 -7 -35 -17 -35 -21 0 -4 -4 -8 -9 -8 -5 0 -74 -38 -154 -85
-80 -47 -150 -85 -156 -85 -6 0 -11 -3 -11 -8 0 -4 -9 -12 -19 -17 -11 -6 -55
-30 -98 -55 -43 -25 -82 -47 -88 -49 -5 -2 -26 -13 -45 -26 -34 -22 -348 -203
-544 -314 -19 -11 -52 -31 -73 -44 -21 -13 -45 -26 -53 -30 -8 -4 -33 -18 -55
-31 -22 -14 -62 -37 -90 -51 -27 -15 -57 -33 -65 -40 -8 -6 -30 -18 -47 -26
-18 -8 -33 -17 -33 -21 0 -5 -4 -8 -10 -8 -5 0 -70 -36 -146 -80 -75 -44 -138
-80 -140 -80 -2 0 -28 -16 -58 -35 -30 -19 -58 -35 -61 -35 -3 0 -30 -16 -60
-35 -30 -19 -55 -31 -55 -27 0 4 -4 2 -8 -3 -8 -12 -130 -85 -141 -85 -5 0
-14 -7 -21 -15 -7 -8 -21 -15 -31 -15 -11 0 -19 -4 -19 -8 0 -4 -19 -18 -42
-30 -24 -12 -50 -26 -58 -32 -22 -15 -161 -94 -190 -108 -92 -45 -253 -50
-355 -12 -33 13 -63 28 -67 34 -4 6 -8 8 -8 4 0 -6 -104 52 -127 72 -7 5 -19
10 -28 10 -8 0 -15 3 -15 8 0 4 -21 19 -47 32 -27 14 -50 27 -53 30 -3 3 -26
17 -52 30 -27 14 -48 29 -48 33 0 5 -4 6 -10 2 -5 -3 -18 3 -30 15 -11 11 -20
17 -20 14 0 -3 -13 4 -29 15 -16 12 -32 21 -35 21 -3 0 -35 18 -71 40 -36 22
-70 40 -75 40 -6 0 -10 5 -10 10 0 6 -4 10 -10 10 -8 0 -120 62 -180 100 -8 5
-37 21 -65 36 -27 15 -52 29 -55 33 -3 3 -34 22 -70 40 -36 19 -71 41 -78 48
-7 7 -17 13 -22 13 -4 0 -57 29 -118 65 -60 36 -115 65 -121 65 -6 0 -11 5
-11 10 0 6 -6 10 -14 10 -8 0 -16 3 -18 8 -1 4 -19 15 -38 25 -19 10 -44 23
-55 30 -11 7 -66 39 -123 71 -56 32 -105 62 -108 67 -3 5 -10 7 -15 4 -5 -4
-9 -1 -9 4 0 6 -4 11 -9 11 -13 0 -155 82 -159 92 -2 4 -8 8 -13 8 -8 0 -119
61 -199 110 -8 5 -60 34 -115 66 -55 32 -138 80 -185 108 -47 28 -88 51 -92
51 -4 0 -13 6 -19 12 -7 7 -19 13 -26 13 -7 0 -13 5 -13 10 0 6 -6 10 -12 10
-7 0 -41 18 -76 40 -34 22 -65 40 -67 40 -2 0 -61 34 -130 75 -70 41 -131 75
-136 75 -5 0 -9 5 -9 12 0 6 -3 8 -6 5 -4 -4 -19 2 -34 13 -16 11 -33 20 -39
20 -6 0 -11 4 -11 8 0 4 -12 13 -27 20 -40 17 -117 63 -124 74 -3 5 -8 8 -10
6 -4 -3 -163 88 -193 112 -54 42 -139 144 -146 175 -1 6 -7 24 -14 40 -7 17
-17 53 -21 80 -9 53 -15 4063 -6 4080 3 5 6 25 8 45 5 41 49 144 78 180 62 76
175 167 189 153 3 -4 6 -1 6 5 0 7 7 12 15 12 8 0 15 5 15 10 0 6 7 10 15 10
8 0 15 4 15 8 0 5 6 9 13 9 6 0 38 16 69 36 31 21 62 37 68 37 5 0 10 5 10 10
0 6 5 10 11 10 6 0 48 23 95 50 47 28 87 50 91 50 4 0 14 6 22 14 9 8 39 26
66 41 28 14 66 36 85 47 19 11 55 32 80 46 25 14 116 67 204 119 87 51 161 93
163 93 3 0 19 10 36 22 17 12 38 23 46 25 9 1 17 7 19 12 2 6 8 11 12 11 7 0
246 135 320 180 33 20 167 96 193 109 15 7 27 17 27 22 0 5 9 9 19 9 11 0 21
3 23 8 4 8 48 35 98 60 19 9 37 19 40 22 14 14 60 39 60 33 0 -5 4 -3 8 2 8
12 130 85 141 85 5 0 14 7 21 15 7 8 16 13 20 10 5 -3 10 -1 12 3 1 5 39 29
83 54 130 73 278 159 310 179 17 11 44 26 60 34 17 8 48 26 70 40 22 14 49 29
60 35 11 5 43 23 70 40 28 17 70 41 95 55 25 14 70 40 101 58 30 17 102 59
160 91 57 33 106 62 109 65 3 4 28 18 55 31 28 14 52 28 55 31 10 12 84 43
134 55 60 15 153 16 215 3z"/>
<path d="M5536 8163 c-2 -3 -33 -6 -67 -9 -35 -2 -70 -6 -79 -9 -8 -2 -35 -7
-60 -10 -144 -20 -398 -98 -558 -171 -41 -19 -76 -34 -79 -34 -3 0 -19 -10
-36 -22 -18 -13 -33 -22 -35 -20 -2 3 -32 -13 -152 -83 -38 -22 -105 -70 -108
-77 -2 -5 -8 -8 -13 -8 -5 0 -17 -6 -26 -14 -10 -8 -47 -38 -83 -67 -83 -67
-176 -153 -217 -202 -18 -22 -33 -36 -33 -32 0 4 -10 -5 -22 -21 -13 -16 -31
-38 -41 -49 -10 -11 -37 -45 -60 -75 -23 -30 -46 -58 -52 -62 -7 -5 -7 -8 0
-8 6 0 2 -5 -7 -11 -10 -5 -18 -16 -18 -24 0 -7 -3 -15 -8 -17 -7 -3 -112
-165 -112 -173 0 -2 -13 -26 -28 -52 -16 -26 -29 -50 -29 -53 0 -3 -16 -39
-35 -80 -19 -41 -46 -106 -59 -145 -13 -38 -26 -72 -29 -75 -5 -5 -8 -16 -13
-48 -1 -9 -6 -23 -10 -29 -5 -7 -6 -13 -3 -13 3 0 -2 -16 -10 -35 -8 -19 -14
-38 -13 -42 1 -5 0 -10 -1 -13 -4 -11 -20 -90 -25 -125 -3 -16 -7 -41 -10 -55
-6 -25 -12 -93 -19 -186 -2 -29 -6 -56 -10 -62 -3 -6 -2 -13 4 -17 6 -4 7 -11
4 -17 -8 -13 -8 -2237 0 -2245 3 -4 7 9 7 28 2 45 6 94 9 94 2 0 11 37 14 66
2 14 8 41 15 61 6 19 13 44 15 54 8 39 60 169 70 176 6 4 8 8 3 8 -9 0 77 164
109 207 13 17 24 36 24 42 0 6 4 11 8 11 4 0 15 12 24 28 40 66 263 296 299
307 11 4 19 10 19 14 0 14 164 117 243 152 26 12 47 25 47 29 0 3 6 7 13 7 6
0 47 15 91 33 43 17 86 33 95 35 9 2 52 12 96 24 116 30 186 40 310 46 33 2
64 4 68 4 5 1 7 46 6 101 -1 56 0 102 2 105 2 2 2 42 -1 90 -3 48 -4 88 -2 89
1 2 3 108 3 237 1 129 4 238 7 244 5 8 13 51 15 83 0 6 4 12 9 12 4 0 7 3 7 8
-4 18 15 72 24 72 6 0 7 3 4 6 -12 13 89 168 149 228 35 34 140 116 149 116 4
0 19 8 33 18 57 39 190 81 282 89 202 17 340 -16 510 -123 80 -50 210 -176
210 -204 0 -6 4 -10 8 -10 8 0 54 -87 49 -94 -1 -1 4 -10 11 -18 18 -22 50
-126 59 -189 3 -30 7 -235 7 -456 0 -356 2 -403 16 -404 8 0 364 -1 790 -1
l775 -1 2 101 c0 55 4 106 8 111 3 6 3 11 -2 11 -4 0 -8 142 -8 315 0 173 -2
315 -5 315 -3 0 -5 19 -6 43 -1 39 -4 65 -19 162 -8 49 -12 73 -20 105 -3 14
-8 37 -11 52 -3 14 -14 57 -25 95 -11 37 -22 75 -24 83 -6 27 -84 236 -107
286 -12 27 -22 51 -23 54 -1 8 -119 245 -125 250 -3 3 -30 46 -60 95 -30 50
-59 95 -65 102 -5 6 -26 31 -45 54 -68 82 -311 319 -328 319 -4 0 -21 14 -39
30 -18 17 -37 30 -42 30 -6 0 -11 4 -11 8 0 5 -12 15 -27 23 -16 8 -30 16 -33
19 -15 15 -71 50 -80 50 -5 0 -10 3 -10 8 0 4 -15 13 -32 21 -18 8 -35 18 -38
22 -4 6 -218 112 -230 114 -3 1 -21 8 -40 16 -19 9 -80 31 -135 49 -55 18
-107 35 -115 38 -8 3 -19 6 -25 7 -5 2 -37 10 -70 18 -57 14 -122 28 -155 32
-8 1 -29 5 -45 9 -70 16 -546 32 -559 19z"/>
</g>
</svg>
